<svg xmlns="http://www.w3.org/2000/svg" viewBox="0 -0.5 40 42" shape-rendering="crispEdges">
<metadata>Made with Pixels to Svg https://codepen.io/shshaw/pen/XbxvNj</metadata>
<path stroke="#77dd77" d="M16 0h2M16 1h2M14 2h2M14 3h2M14 4h2M14 5h2M14 6h2M14 7h2M16 12h2M16 13h2M8 14h2M8 15h2M6 16h2M6 17h2M4 24h2M4 25h2M2 26h2M2 27h2M0 28h2M0 29h2M4 30h2M4 31h2M4 32h2M4 33h2M4 34h2M4 35h2M6 36h2M6 37h2M8 38h2M8 39h2M10 40h2M10 41h2" />
<path stroke="#4ea54e" d="M18 0h2M18 1h2M16 2h2M16 3h2M16 8h2M16 9h2M18 10h2M18 11h2M18 12h2M18 13h2M10 14h2M10 15h2M8 16h2M8 17h2M18 18h2M18 19h2M18 20h2M18 21h2M18 22h2M18 23h2M6 24h2M18 24h2M6 25h2M18 25h2M4 26h4M18 26h2M4 27h4M18 27h2M2 28h4M18 28h2M2 29h4M18 29h2M18 30h2M18 31h2M6 32h2M18 32h2M6 33h2M18 33h2M6 34h2M6 35h2M8 36h2M8 37h2M10 38h2M10 39h2M12 40h2M12 41h2" />
<path stroke="#0c7000" d="M20 0h2M20 1h2M22 2h2M22 3h2M22 8h2M22 9h2M20 10h2M20 11h2M20 12h2M20 13h2M28 14h2M28 15h2M30 16h2M30 17h2M20 20h2M20 21h2M20 22h2M20 23h2M20 24h2M32 24h2M20 25h2M32 25h2M20 26h2M32 26h4M20 27h2M32 27h4M20 28h2M34 28h4M20 29h2M34 29h4M20 30h2M20 31h2M20 32h2M32 32h2M20 33h2M32 33h2M20 34h2M32 34h2M20 35h2M32 35h2M30 36h2M30 37h2M28 38h2M28 39h2M26 40h2M26 41h2" />
<path stroke="#1f4f1f" d="M22 0h2M22 1h2M24 2h2M24 3h2M24 4h2M24 5h2M24 6h2M24 7h2M22 12h2M22 13h2M30 14h2M30 15h2M32 16h2M32 17h2M34 24h2M34 25h2M36 26h2M36 27h2M38 28h2M38 29h2M34 30h2M34 31h2M34 32h2M34 33h2M34 34h2M34 35h2M32 36h2M32 37h2M30 38h2M30 39h2M28 40h2M28 41h2" />
<path stroke="#398339" d="M12 14h16M12 15h16M10 16h20M10 17h20M20 18h2M20 19h2M8 26h2M30 26h2M8 27h2M30 27h2M6 28h6M28 28h6M6 29h6M28 29h6M6 30h2M32 30h2M6 31h2M32 31h2M8 34h2M18 34h2M30 34h2M8 35h2M18 35h2M30 35h2M10 36h20M10 37h20M12 38h16M12 39h16M14 40h12M14 41h12" />
</svg>